TITLE ""
FILE "1Q_t_1330-1338.mp3" MP3
  TRACK 01 AUDIO
    TITLE "1Q_t_1330-1338_01"
    INDEX 01 00:00:00
  TRACK 02 AUDIO
    TITLE "1Q_t_1330-1338_02"
    INDEX 01 00:00:10
  TRACK 03 AUDIO
    TITLE "1Q_t_1330-1338_03"
    INDEX 01 00:01:41
  TRACK 04 AUDIO
    TITLE "1Q_t_1330-1338_04"
    INDEX 01 00:01:49
  TRACK 05 AUDIO
    TITLE "1Q_t_1330-1338_05"
    INDEX 01 00:03:18
  TRACK 06 AUDIO
    TITLE "1Q_t_1330-1338_06"
    INDEX 01 00:03:24
  TRACK 07 AUDIO
    TITLE "1Q_t_1330-1338_07"
    INDEX 01 00:07:73
  TRACK 08 AUDIO
    TITLE "1Q_t_1330-1338_08"
    INDEX 01 00:08:41
  TRACK 09 AUDIO
    TITLE "1Q_t_1330-1338_09"
    INDEX 01 00:09:64
  TRACK 10 AUDIO
    TITLE "1Q_t_1330-1338_10"
    INDEX 01 00:09:72
  TRACK 11 AUDIO
    TITLE "1Q_t_1330-1338_11"
    INDEX 01 00:11:55
  TRACK 12 AUDIO
    TITLE "1Q_t_1330-1338_12"
    INDEX 01 00:11:63
  TRACK 13 AUDIO
    TITLE "1Q_t_1330-1338_13"
    INDEX 01 00:16:01
  TRACK 14 AUDIO
    TITLE "1Q_t_1330-1338_14"
    INDEX 01 00:16:49
  TRACK 15 AUDIO
    TITLE "1Q_t_1330-1338_15"
    INDEX 01 00:17:54
  TRACK 16 AUDIO
    TITLE "1Q_t_1330-1338_16"
    INDEX 01 00:17:60
  TRACK 17 AUDIO
    TITLE "1Q_t_1330-1338_17"
    INDEX 01 00:20:46
  TRACK 18 AUDIO
    TITLE "1Q_t_1330-1338_18"
    INDEX 01 00:20:52
  TRACK 19 AUDIO
    TITLE "1Q_t_1330-1338_19"
    INDEX 01 00:25:24
  TRACK 20 AUDIO
    TITLE "1Q_t_1330-1338_20"
    INDEX 01 00:25:69
  TRACK 21 AUDIO
    TITLE "1Q_t_1330-1338_21"
    INDEX 01 00:27:21
  TRACK 22 AUDIO
    TITLE "1Q_t_1330-1338_22"
    INDEX 01 00:27:31
  TRACK 23 AUDIO
    TITLE "1Q_t_1330-1338_23"
    INDEX 01 00:30:56
  TRACK 24 AUDIO
    TITLE "1Q_t_1330-1338_24"
    INDEX 01 00:30:62
  TRACK 25 AUDIO
    TITLE "1Q_t_1330-1338_25"
    INDEX 01 00:35:46
  TRACK 26 AUDIO
    TITLE "1Q_t_1330-1338_26"
    INDEX 01 00:36:16
  TRACK 27 AUDIO
    TITLE "1Q_t_1330-1338_27"
    INDEX 01 00:37:39
  TRACK 28 AUDIO
    TITLE "1Q_t_1330-1338_28"
    INDEX 01 00:37:45
  TRACK 29 AUDIO
    TITLE "1Q_t_1330-1338_29"
    INDEX 01 00:40:51
  TRACK 30 AUDIO
    TITLE "1Q_t_1330-1338_30"
    INDEX 01 00:40:57
  TRACK 31 AUDIO
    TITLE "1Q_t_1330-1338_31"
    INDEX 01 00:45:44
  TRACK 32 AUDIO
    TITLE "1Q_t_1330-1338_32"
    INDEX 01 00:46:12
  TRACK 33 AUDIO
    TITLE "1Q_t_1330-1338_33"
    INDEX 01 00:47:20
  TRACK 34 AUDIO
    TITLE "1Q_t_1330-1338_34"
    INDEX 01 00:47:63
  TRACK 35 AUDIO
    TITLE "1Q_t_1330-1338_35"
    INDEX 01 00:49:09
  TRACK 36 AUDIO
    TITLE "1Q_t_1330-1338_36"
    INDEX 01 00:49:21
  TRACK 37 AUDIO
    TITLE "1Q_t_1330-1338_37"
    INDEX 01 00:51:39
  TRACK 38 AUDIO
    TITLE "1Q_t_1330-1338_38"
    INDEX 01 00:51:45
  TRACK 39 AUDIO
    TITLE "1Q_t_1330-1338_39"
    INDEX 01 00:57:08
  TRACK 40 AUDIO
    TITLE "1Q_t_1330-1338_40"
    INDEX 01 00:57:51
  TRACK 41 AUDIO
    TITLE "1Q_t_1330-1338_41"
    INDEX 01 00:58:72
  TRACK 42 AUDIO
    TITLE "1Q_t_1330-1338_42"
    INDEX 01 00:59:05
  TRACK 43 AUDIO
    TITLE "1Q_t_1330-1338_43"
    INDEX 01 01:01:08
  TRACK 44 AUDIO
    TITLE "1Q_t_1330-1338_44"
    INDEX 01 01:01:16
  TRACK 45 AUDIO
    TITLE "1Q_t_1330-1338_45"
    INDEX 01 01:06:72
  TRACK 46 AUDIO
    TITLE "1Q_t_1330-1338_46"
    INDEX 01 01:07:40
  TRACK 47 AUDIO
    TITLE "1Q_t_1330-1338_47"
    INDEX 01 01:08:51
  TRACK 48 AUDIO
    TITLE "1Q_t_1330-1338_48"
    INDEX 01 01:08:59
  TRACK 49 AUDIO
    TITLE "1Q_t_1330-1338_49"
    INDEX 01 01:12:31
  TRACK 50 AUDIO
    TITLE "1Q_t_1330-1338_50"
    INDEX 01 01:12:39
  TRACK 51 AUDIO
    TITLE "1Q_t_1330-1338_51"
    INDEX 01 01:19:14
  TRACK 52 AUDIO
    TITLE "1Q_t_1330-1338_52"
    INDEX 01 01:19:59
  TRACK 53 AUDIO
    TITLE "1Q_t_1330-1338_53"
    INDEX 01 01:20:72
  TRACK 54 AUDIO
    TITLE "1Q_t_1330-1338_54"
    INDEX 01 01:21:05
  TRACK 55 AUDIO
    TITLE "1Q_t_1330-1338_55"
    INDEX 01 01:24:13
  TRACK 56 AUDIO
    TITLE "1Q_t_1330-1338_56"
    INDEX 01 01:24:19
  TRACK 57 AUDIO
    TITLE "1Q_t_1330-1338_57"
    INDEX 01 01:29:47
